<svg xmlns="http://www.w3.org/2000/svg" width="1024" height="1024" viewBox="0 0 1024 1024" version="1.1"><path d="M 0 512.001 L 0 1024.002 512.250 1023.751 L 1024.500 1023.500 1024.751 511.750 L 1025.002 0 512.501 0 L 0 0 0 512.001 M 0.496 512.500 C 0.496 794.100, 0.610 909.151, 0.750 768.168 C 0.890 627.186, 0.890 396.786, 0.750 256.168 C 0.610 115.551, 0.496 230.900, 0.496 512.500 M 185.900 145.880 L 183.500 147.823 183.245 442.335 C 183.014 709.353, 183.137 736.994, 184.566 738.424 C 185.451 739.308, 187.818 740, 189.959 740 C 193.601 740, 194.724 739.039, 214.637 718.877 C 226.112 707.259, 235.950 697.215, 236.500 696.555 C 237.050 695.895, 252.463 680.285, 270.750 661.865 L 304 628.374 304 450.003 C 304 272.390, 304.009 271.613, 306.044 267.409 C 309.959 259.321, 298.235 259.909, 449.210 260.228 L 583.500 260.511 594.445 262.829 C 623.381 268.958, 652.600 282.059, 677 299.843 C 685.952 306.369, 702.190 321.958, 709.451 331 C 736.194 364.300, 752.169 406.825, 756.033 455 C 757.741 476.307, 756.761 563.674, 754.643 578.922 C 748.531 622.908, 737.927 649.755, 714.230 681.237 C 683.025 722.694, 641.074 745.930, 586.500 751.985 C 572.500 753.538, 439.148 753.297, 436 751.712 C 433.331 750.369, 432.279 746.009, 433.475 741.244 C 433.849 739.752, 478.478 694.127, 545.549 626.669 C 643.934 527.715, 657.003 514.217, 657.028 511.537 C 657.053 508.839, 650.488 501.972, 598.203 450 C 496.121 348.530, 466.874 320.336, 462.409 319.097 C 457.183 317.645, 381.635 317.590, 378.934 319.035 C 377.088 320.023, 377 321.433, 377 349.970 C 377 368.547, 377.400 380.936, 378.058 382.685 C 378.639 384.233, 406.026 412.500, 438.917 445.500 C 471.808 478.500, 499.457 506.613, 500.359 507.973 C 501.262 509.332, 502 511.509, 502 512.809 C 502 515.106, 487.405 529.938, 225.169 794.123 C 205.175 814.266, 187.509 832.716, 185.912 835.123 C 183.052 839.434, 183.008 839.713, 183.004 853.595 C 183 866.658, 183.154 867.830, 185.105 869.595 C 187.161 871.455, 192.057 871.500, 394.355 871.500 L 601.500 871.500 616 869.192 C 702.479 855.426, 775.941 809.279, 822.675 739.364 C 851.970 695.539, 870.606 641.897, 877.173 582.500 C 879.072 565.323, 879.052 441.395, 877.147 424.500 C 870.967 369.681, 854.224 322.533, 825.834 280 C 812.512 260.041, 801.681 246.863, 785.381 230.781 C 736.870 182.916, 686.565 158.246, 614 146.734 C 600.574 144.604, 599.375 144.590, 394.400 144.264 C 191.542 143.942, 188.262 143.967, 185.900 145.880" stroke="none" fill="#040404" fill-rule="evenodd"/><path d="M 185.900 145.880 L 183.500 147.823 183.245 442.335 C 183.014 709.353, 183.137 736.994, 184.566 738.424 C 185.451 739.308, 187.818 740, 189.959 740 C 193.601 740, 194.724 739.039, 214.637 718.877 C 226.112 707.259, 235.950 697.215, 236.500 696.555 C 237.050 695.895, 252.463 680.285, 270.750 661.865 L 304 628.374 304 450.003 C 304 272.390, 304.009 271.613, 306.044 267.409 C 309.959 259.321, 298.235 259.909, 449.210 260.228 L 583.500 260.511 594.445 262.829 C 623.381 268.958, 652.600 282.059, 677 299.843 C 685.952 306.369, 702.190 321.958, 709.451 331 C 736.194 364.300, 752.169 406.825, 756.033 455 C 757.741 476.307, 756.761 563.674, 754.643 578.922 C 748.531 622.908, 737.927 649.755, 714.230 681.237 C 683.025 722.694, 641.074 745.930, 586.500 751.985 C 572.500 753.538, 439.148 753.297, 436 751.712 C 433.331 750.369, 432.279 746.009, 433.475 741.244 C 433.849 739.752, 478.478 694.127, 545.549 626.669 C 643.934 527.715, 657.003 514.217, 657.028 511.537 C 657.053 508.839, 650.488 501.972, 598.203 450 C 496.121 348.530, 466.874 320.336, 462.409 319.097 C 457.183 317.645, 381.635 317.590, 378.934 319.035 C 377.088 320.023, 377 321.433, 377 349.970 C 377 368.547, 377.400 380.936, 378.058 382.685 C 378.639 384.233, 406.026 412.500, 438.917 445.500 C 471.808 478.500, 499.457 506.613, 500.359 507.973 C 501.262 509.332, 502 511.509, 502 512.809 C 502 515.106, 487.405 529.938, 225.169 794.123 C 205.175 814.266, 187.509 832.716, 185.912 835.123 C 183.052 839.434, 183.008 839.713, 183.004 853.595 C 183 866.658, 183.154 867.830, 185.105 869.595 C 187.161 871.455, 192.057 871.500, 394.355 871.500 L 601.500 871.500 616 869.192 C 702.479 855.426, 775.941 809.279, 822.675 739.364 C 851.970 695.539, 870.606 641.897, 877.173 582.500 C 879.072 565.323, 879.052 441.395, 877.147 424.500 C 870.967 369.681, 854.224 322.533, 825.834 280 C 812.512 260.041, 801.681 246.863, 785.381 230.781 C 736.870 182.916, 686.565 158.246, 614 146.734 C 600.574 144.604, 599.375 144.590, 394.400 144.264 C 191.542 143.942, 188.262 143.967, 185.900 145.880" stroke="none" fill="#7435fb" fill-rule="evenodd"/></svg>