<?xml version="1.0" standalone="no"?>
<!DOCTYPE svg PUBLIC "-//W3C//DTD SVG 20010904//EN"
 "http://www.w3.org/TR/2001/REC-SVG-20010904/DTD/svg10.dtd">
<svg version="1.0" xmlns="http://www.w3.org/2000/svg"
 width="1024.000000pt" height="1023.000000pt" viewBox="0 0 1024.000000 1023.000000"
 preserveAspectRatio="xMidYMid meet">
<metadata>
Created by potrace 1.16, written by Peter Selinger 2001-2019
</metadata>
<g transform="translate(0.000000,1023.000000) scale(0.100000,-0.100000)"
fill="#000000" stroke="none">
<path d="M214 9909 c-46 -13 -91 -59 -103 -106 -8 -29 -10 -1113 -9 -3835 l3
-3794 28 -43 c48 -72 145 -93 219 -48 20 12 131 114 245 227 115 113 343 336
508 495 463 449 450 435 463 481 9 32 12 640 12 2566 l0 2525 23 34 c12 18 33
36 47 40 39 11 4177 10 4315 -1 226 -17 430 -59 650 -132 33 -11 74 -26 90
-33 17 -7 57 -23 90 -35 194 -76 432 -215 655 -384 135 -102 433 -401 535
-535 322 -428 527 -900 629 -1452 51 -274 65 -750 32 -1074 -9 -93 -21 -183
-26 -200 -5 -16 -11 -57 -15 -90 -13 -109 -114 -476 -160 -580 -8 -16 -26 -59
-40 -95 -225 -558 -612 -1044 -1090 -1372 -390 -268 -764 -414 -1255 -490
-145 -23 -146 -23 -1438 -23 l-1294 0 -24 28 c-17 20 -24 40 -24 68 0 45 5 51
280 315 74 71 295 284 490 474 196 190 493 478 660 640 305 296 527 512 995
970 137 135 313 306 390 380 207 199 235 241 220 333 -6 39 -29 63 -263 297
-142 141 -426 420 -632 620 -206 201 -474 462 -595 580 -766 749 -990 962
-1028 978 -26 11 -127 14 -507 15 -459 2 -476 1 -509 -18 -19 -11 -43 -33 -55
-48 -20 -27 -21 -42 -24 -315 -2 -240 0 -293 13 -327 16 -44 104 -133 745
-755 917 -891 999 -973 1010 -1006 19 -57 0 -91 -113 -199 -130 -126 -580
-569 -1147 -1130 -245 -242 -623 -613 -840 -825 -217 -211 -512 -499 -655
-640 -143 -141 -370 -364 -505 -496 -226 -221 -704 -692 -976 -961 -85 -84
-115 -121 -123 -150 -14 -48 -14 -207 -1 -255 14 -51 67 -94 132 -108 74 -16
5659 -8 5798 8 351 41 664 108 944 203 130 44 405 152 454 178 9 6 73 37 141
71 207 102 458 257 666 410 496 367 863 765 1218 1320 19 30 49 81 67 114 17
32 45 81 62 109 59 101 206 422 255 557 39 109 101 293 113 335 56 202 121
496 134 605 4 30 11 75 16 100 22 101 43 423 47 705 5 309 -9 563 -43 790 -8
55 -17 118 -20 140 -30 234 -200 822 -304 1050 -5 11 -21 49 -36 85 -81 199
-302 599 -442 800 -538 771 -1255 1341 -2077 1649 -390 147 -803 236 -1205
261 -211 13 -5771 12 -5816 -1z"/>
</g>
</svg>
